<?xml version="1.0" encoding="UTF-8" standalone="no"?>
<!DOCTYPE svg PUBLIC "-//W3C//DTD SVG 1.1//EN" "http://www.w3.org/Graphics/SVG/1.1/DTD/svg11.dtd">
<svg width="100%" height="100%" viewBox="0 0 118 118" version="1.1" xmlns="http://www.w3.org/2000/svg" xmlns:xlink="http://www.w3.org/1999/xlink" xml:space="preserve" xmlns:serif="http://www.serif.com/" style="fill-rule:evenodd;clip-rule:evenodd;stroke-linejoin:round;stroke-miterlimit:2;">
    <g transform="matrix(1,0,0,1,-0.346702,-136.558)">
        <g transform="matrix(0.922736,0,0,1.84547,0,136.21)">
            <g transform="matrix(4.89402,0,0,2.44701,-733.723,-161.314)">
                <path d="M162.999,66C161.062,66 159.569,66.508 158.499,67.344C157.429,68.18 156.812,69.305 156.374,70.344C155.937,71.383 155.655,72.379 155.374,73.094C155.093,73.809 154.859,74.086 154.655,74.156C151.827,75.16 149.999,77.863 149.999,81L149.999,82L150.999,82C152.347,82 153.003,82.281 153.312,82.531C153.62,82.781 153.741,83.066 153.812,83.563C153.882,84.059 153.847,84.664 153.937,85.344C153.984,85.684 154.054,86.066 154.28,86.438C154.507,86.809 154.917,87.129 155.374,87.281C156.433,87.633 157.112,87.855 157.53,88.094C157.948,88.332 158.198,88.547 158.53,89.25C158.847,89.918 159.273,90.648 160.03,91.188C160.788,91.727 161.808,92.016 163.093,92C165.194,91.973 166.448,90.887 167.093,89.938C167.417,89.461 167.644,89.051 167.843,88.781C168.042,88.512 168.163,88.406 168.374,88.344C169.73,87.938 170.605,87.25 171.093,86.469C171.581,85.688 171.675,84.922 171.812,84.406C171.948,83.891 172.046,83.688 172.374,83.469C172.702,83.25 173.452,83 174.999,83L175.999,83L175.999,82C175.999,80.621 176.046,79.016 175.437,77.5C174.827,75.984 173.441,74.645 171.155,74.125C171.132,74.121 171.105,74.133 170.999,74C170.894,73.867 170.734,73.602 170.593,73.25C170.312,72.551 170.042,71.527 169.593,70.469C169.144,69.41 168.503,68.27 167.437,67.406C166.37,66.543 164.905,66 162.999,66ZM160,72C160.552,72 161,72.672 161,73.5C161,74.328 160.552,75 160,75C159.448,75 159,74.328 159,73.5C159,72.672 159.448,72 160,72ZM164,72C164.551,72 165,72.672 165,73.5C165,74.328 164.551,75 164,75C163.448,75 163,74.328 163,73.5C163,72.672 163.448,72 164,72Z" style="fill-rule:nonzero;"/>
            </g>
        </g>
    </g>
</svg>
